<?xml version="1.0" encoding="UTF-8"?>
<!DOCTYPE svg PUBLIC "-//W3C//DTD SVG 1.1//EN" "http://www.w3.org/Graphics/SVG/1.1/DTD/svg11.dtd">
<!-- Creator: CorelDRAW 2020 (64-Bit) -->
<svg xmlns="http://www.w3.org/2000/svg" xml:space="preserve" width="257.119mm" height="98.6868mm" version="1.1" style="shape-rendering:geometricPrecision; text-rendering:geometricPrecision; image-rendering:optimizeQuality; fill-rule:evenodd; clip-rule:evenodd"
viewBox="0 0 165769.76 63625.45"
 xmlns:xlink="http://www.w3.org/1999/xlink"
 xmlns:xodm="http://www.corel.com/coreldraw/odm/2003">
 <defs>
  <style type="text/css">
   <![CDATA[
    .str0 {stroke:#0B70B6;stroke-width:128.94;stroke-miterlimit:22.9256}
    .str3 {stroke:#61D81E;stroke-width:128.94;stroke-miterlimit:22.9256}
    .str4 {stroke:#61D81E;stroke-width:128.94;stroke-miterlimit:22.9256}
    .str5 {stroke:#0B70B6;stroke-width:49.13;stroke-miterlimit:22.9256}
    .str1 {stroke:#61D81E;stroke-width:49.13;stroke-miterlimit:22.9256}
    .str2 {stroke:#61D81E;stroke-width:49.13;stroke-miterlimit:22.9256}
    .fil3 {fill:#0B70B6}
    .fil0 {fill:#0B70B6}
    .fil1 {fill:#61D81E}
    .fil2 {fill:#61D81E}
   ]]>
  </style>
 </defs>
 <g id="Layer_x0020_1">
  <metadata id="CorelCorpID_0Corel-Layer"/>
  <path class="fil0 str0" d="M18013.25 56676.78c1543.85,167.18 4004.17,-671.61 7380.96,-2516.28 -7284.7,7543.56 -14302.23,10199.62 -21052.78,7968.17 -5376.46,-3304.65 -5683.99,-9343.68 -922.66,-18117.05 5664,-10382.59 7006.12,-16281.78 4026.22,-17697.85 -1542.88,-541.31 -3695.73,297.47 -6458.43,2516.22 4798.08,-6017.76 11212.92,-10159.19 18927.65,-6512.58 1740.68,822.79 2485.66,2074.13 2782.42,3967.03 644.46,4110.48 -1779.56,8871.04 -3760.72,12310.24 -8424.96,12913.57 -8732.49,18941 -922.66,18082.1z"/>
  <circle class="fil0 str0" cx="15282.18" cy="8722.4" r="8657.9"/>
  <path class="fil1 str1" d="M12991.51 15135.47c34.94,-40.88 43.07,-168.01 24.31,-381.29 227.01,-92.9 322.42,-165.5 286.39,-217.79 -17.02,-48.48 39.91,-122.95 170.79,-223.46 -27.98,-43.39 -32.17,-93.23 -12.51,-149.7 48.48,-18.83 64.34,-87.23 47.58,-205.34 38.88,22.37 83.49,-22.24 133.84,-133.84 -23.85,-82.4 -31.78,-184.07 -23.79,-305.15 -5.35,-64.79 61.96,-140.03 201.93,-225.78 40.94,25.79 104.06,-33.98 189.35,-179.17 84.2,19.6 116.69,-34.11 97.55,-161.12 94.52,-27.98 155.76,-89.23 183.75,-183.75 25.27,-56.67 -19.34,-141.39 -133.84,-254.02 8.38,-106.25 55.25,-204.96 140.74,-296.12l-6.32 -6.32c61.12,-33.53 105.54,-118.05 133.26,-253.5 115.92,-95.16 131.46,-187.03 46.55,-275.68 66.02,-158.92 8.19,-265.88 -173.49,-321.01 -121.4,-152.41 -198.19,-219.01 -230.42,-199.67 -87.1,55.12 -177.49,30.88 -271.11,-72.6 -43.39,-41.52 -134.88,-31.66 -274.52,29.53 32.82,-62.15 -28.05,-95.48 -182.65,-99.87 -57.7,-117.08 -174.65,-148.48 -350.66,-94.13 -32.17,-63.31 -95.35,-114.31 -189.68,-153.19 -51.19,-26.5 -92.52,-83.62 -123.72,-171.3 -12.38,-21.79 -78.59,-39.2 -198.57,-52.16 -24.56,-82.52 -49.45,-139.65 -74.85,-171.3 -90.39,-35.72 -167.11,-45.19 -230.23,-28.37 -126.17,-153.89 -235.84,-263.56 -329,-328.94 -72.34,-29.98 -142.68,-74.27 -211.08,-132.75 -67.7,-15.6 -143.71,-20.12 -228.04,-13.6 -44.68,-78.53 -133.13,-101.99 -265.43,-70.34 -78.33,-0.9 -150.16,-17.54 -215.59,-49.97 -64.6,-82.78 -161.37,-108.06 -290.38,-76.01 -43.45,93.42 -111.92,161.89 -205.34,205.34 -241.25,-52.93 -358.46,19.28 -351.7,216.76 125.14,173.88 156.15,316.43 93.03,427.64 -116.37,88.97 -176.91,254.99 -181.62,498.05 39.97,36.88 46.03,121.59 18.12,254.08 -12.83,54.16 69.24,128.3 246.15,222.36 84.72,72.72 162.99,150.99 234.81,234.87 107.22,111.92 136.29,198.57 87.36,259.82 -3.42,65.5 61.25,99.16 194,100.96 43.45,38.81 53.51,100.25 30.11,184.33 41.39,53.25 127.65,60.02 258.66,20.44 108.44,111.99 224.62,219.79 348.47,323.33 78.2,42.81 100.9,119.6 68.15,230.36 3.74,34.3 50.61,64.54 140.68,90.71 -42.1,88.2 -33.72,187.68 25.02,298.44 71.11,196.12 80.59,308.05 28.5,335.77 -8.32,44.81 22.69,84.14 93.03,117.98 41.13,82.52 47.58,151.77 19.41,207.66 11.54,43.07 48.23,61.57 110.05,55.57 -26.82,141.32 -36.62,218.82 -29.4,232.55 0.32,40.75 38.88,58.54 115.73,53.32 -48.23,219.01 -46.29,308.63 5.74,268.85 70.73,27.4 122.56,128.75 155.51,304.11 43.33,27.98 110.31,171.69 200.77,431.06 77.95,55.96 115.73,173.56 113.54,352.86 48.23,58.48 111.02,88 188.32,88.46 -17.09,132.81 -10.06,201.86 21.08,207.08 44.55,1.68 86.91,24.76 127.01,69.24 58.99,-1.61 101.48,21.21 127.46,68.4 0.26,1.22 0.45,2.39 0.71,3.61 20.63,104.38 59.19,173.17 115.73,206.44 78.33,123.14 165.31,151.12 260.92,83.94 51.77,149.19 134.23,219.53 247.31,211.02 187.68,-99.42 199.73,-218.88 36.3,-358.46 -57.12,-40.81 -153.19,-40.81 -288.19,0 48.16,-103.09 11.09,-226.3 -111.15,-369.81 -39.46,-26.82 -36.43,-71.44 9.09,-133.91 66.86,-66.79 58.15,-135.97 -26.18,-207.6 -122.37,-21.08 -178.33,-129.98 -167.95,-326.68 0.19,-3.8 0.39,-7.54 0.64,-11.28z"/>
  <path class="fil2 str2" d="M21985.57 11991.55c-95.23,-191.22 -38.88,-299.41 169.17,-324.55 115.02,-53.13 176.98,-157.51 186.07,-313.08 196.06,-136.42 309.53,-115.21 340.28,63.51 29.79,104.9 -6.45,215.27 -108.83,331.26 12.25,127.98 -37.46,190.71 -149.32,188.32 -48.48,19.79 -56.54,73.5 -24.31,161.12 27.34,66.34 -8.64,120.82 -107.86,163.37 -44.1,64.92 -44.1,119.02 0,162.28 -105.99,120.82 -210.37,145 -313.08,72.6 -53.9,-42.55 -64.09,-125.4 -30.62,-248.48 71.69,-55.83 84.52,-141.32 38.49,-256.34z"/>
  <path class="fil2 str2" d="M15838.15 4934.24c125.27,19.6 174.4,-66.6 147.45,-258.6 125.85,-6.77 181.88,-83.88 167.95,-231.45 90.52,-173.75 214.56,-197.22 372.07,-70.34 0,73.82 0,135.07 0,183.75 75.37,17.54 111.67,96.97 108.89,238.29 -15.54,120.89 45.78,222.24 183.81,303.99 -28.75,214.89 -136.94,296.57 -324.49,245.06 -4.13,-74.47 -96.32,-111.54 -276.78,-111.15 -159.12,99.8 -298.31,91.49 -417.46,-24.95 -78.98,-99.42 -66.15,-190.9 38.55,-274.59z"/>
  <path class="fil1 str3" d="M15866.26 3163.26c-151.83,-110.12 -273.75,-121.01 -365.62,-32.62 -120.11,178.65 -105.8,285.29 43.07,319.85 2.84,0.71 5.67,1.29 8.51,1.87 55.12,106.7 157.44,158.28 306.89,154.73 65.63,-65.63 154.93,-123.14 267.75,-172.46 222.3,-120.3 207.92,-241.32 -43.13,-363.04 -83.62,16.12 -156.15,46.68 -217.46,91.68z"/>
  <ellipse class="fil2 str4" cx="10468.02" cy="7864.36" rx="178.09" ry="162.2"/>
  <path class="fil1 str1" d="M9416.21 2236.41c-139.71,131.33 -258.86,250.47 -357.5,357.56 142.87,109.34 279.49,98.45 409.78,-32.69 158.86,123.4 312.37,141.58 460.59,54.48 136.42,-38.55 187.87,-114.95 154.28,-229.13 65.89,-105.35 142.23,-130.36 229.13,-74.92 83.1,103.8 57.32,202.89 -77.17,297.28 -43.84,10.57 -65.76,15.86 -65.76,15.86 16.05,76.98 -16.5,126.11 -97.55,147.45 -58.28,49.13 -126.37,117.15 -204.18,204.18 -73.43,-203.93 -202.06,-273.56 -385.74,-208.7 -38.1,89.29 -165.18,144.87 -381.29,166.72 -134.75,-30.82 -245.57,-33.07 -332.42,-6.77 -102.06,98.45 -183.04,200.96 -242.8,307.4 185.74,-2.84 298.05,50.55 336.87,160.02 84.72,8.32 127.07,12.51 127.07,12.51 118.89,-90.33 230.04,-100.51 333.51,-30.62 9.8,67.24 -17.41,94.52 -81.69,81.69 -98.19,-27.01 -163.63,-21.73 -196.25,15.86 -38.1,106.44 -260.34,106.44 -666.9,0 -270.27,344.67 -569.22,807.77 -869.15,1416.77 -351.95,523.84 -677.21,1503.81 -851.03,3039.09 187.23,59.77 324.55,83.75 379.29,-89.36 71.18,-136.75 154.35,-111.02 249.57,77.11 157.18,195.67 221.46,363.62 192.9,503.66 4.51,68.47 102.06,83.56 292.7,45.39 22.76,132.43 86.26,195.93 190.52,190.64 99.61,-118.69 173.69,-118.69 222.36,0 151.9,-38.49 252.47,-6.71 301.79,95.23 166.4,-58.15 267.82,0.84 304.18,177.04 39.71,77.75 119.14,77.75 238.22,0 62.86,88 130.94,135.65 204.18,142.93 56.8,-93.61 114.24,-124.62 172.4,-93.03 37.07,60.28 43.13,131.39 18.18,213.27 4.51,64.41 55.19,93.16 152.03,86.26 67.05,195.93 196.38,232.55 387.99,109.86 18.83,-118.82 -13.67,-202.38 -97.55,-250.54 -72.02,3.8 -145.32,-138.36 -219.98,-426.55 -57.7,-55.7 -146.93,-55.7 -267.75,0 -179.49,10.19 -230.94,-76.01 -154.28,-258.66 151.77,-18.76 190.32,-112.25 115.73,-280.39 -171.5,-145.9 -300.12,-91.81 -385.67,162.21 -98.96,45 -142.03,99.29 -129.33,162.92 -12.96,82.4 -128.69,41.78 -347.18,-121.92 -92.26,-18.5 -175.43,-113.08 -249.64,-283.55 -124.82,-48.23 -128.94,-135.97 -12.44,-263.18 8.64,-82.59 61.96,-145.38 159.96,-188.32 54.54,-43.13 101.54,-58.22 141,-45.39 31.98,2.39 68.53,-22.57 109.67,-74.92 83.94,1.48 147.83,-5.29 191.74,-20.37 27.27,-14.83 43.52,-54.87 48.81,-120.24 91.23,50.8 205.02,42.87 341.44,-23.85 204.51,22.76 302.05,77.56 292.7,164.47 74.34,43.84 121.53,114.18 141.84,211.02 228.36,137.13 366.07,97.03 412.94,-120.18 -14.05,-117.21 -89.29,-192.45 -225.72,-225.72 43.71,-45.71 92.45,-113.79 146.29,-204.25 214.24,-18.05 316.3,-89.16 306.31,-213.27 -35.33,-112.7 -9.74,-161.82 76.85,-147.45 47,-41.07 47,-108.38 0,-201.93 29.08,8.51 119.21,-48.93 270.33,-172.46 157.25,21.53 263.88,-42.75 319.91,-192.84 125.91,-54.48 192.06,-120.63 198.57,-198.57 129.91,-3.55 291.41,-84.07 484.38,-241.58 486.06,56.67 553.36,-115.79 201.93,-517.32 179.23,37.97 293.41,-29.33 342.6,-201.93 110.76,50.87 167.5,118.89 170.27,204.18 52.29,-44.61 167.24,-29.53 344.86,45.39 308.95,-160.6 308.95,-284.64 0,-372.07 46.29,-187.87 4.64,-283.16 -124.82,-285.87 22.11,-85.55 -39.91,-202.06 -186,-349.44 54.41,-312.37 -21.98,-456.08 -229.2,-431.06 -184,4.96 -367.81,61.7 -551.3,170.14 196.25,-210.37 166.72,-326.87 -88.46,-349.37 -45.32,14.31 -88.84,57.77 -130.49,130.43 -205.02,-43.71 -322.62,51.19 -352.79,284.77 -172.01,399.98 -339.19,663.93 -501.53,791.78 -55.96,-194.32 -298.89,-369.81 -728.86,-526.41 -44.16,-114.5 161.7,-283.16 617.64,-505.98 129.01,-43 242.42,-101.99 340.35,-176.98 106.77,48.16 188.45,-4.77 244.99,-158.79 -22.24,-67.18 38.23,-147.38 181.49,-240.55 50.93,-25.08 109.15,-93.87 174.65,-206.44 84.97,33.01 110.7,-18.44 77.17,-154.28 106.64,-92.71 188.26,-179.68 244.99,-260.92 120.18,-19.28 175.75,49.97 166.72,207.6 132.1,121.34 145.32,212.05 39.65,272.2 -246.22,110.7 -354.73,217.72 -325.58,321.07 80.14,144.55 203.22,169.11 369.17,73.76 60.41,46.81 141.71,55.7 243.9,26.69 247.44,88.58 376,61.38 385.74,-81.69 38.55,-90.58 96.39,-140.16 173.56,-148.61 224.94,-98.06 240.09,-251.96 45.52,-461.75 -133.78,-128.82 -269.94,-275.17 -408.37,-438.99 -20.89,-43.26 -112.44,-34.23 -274.52,27.21 -35.01,-105.15 -115.15,-152.03 -240.48,-140.68 -90,-99.22 -65.05,-169.56 74.85,-210.95 107.02,56.86 192.06,9.22 255.25,-143 117.85,41.78 180.26,-0.19 187.16,-125.91 27.53,-99.03 81.04,-152.54 160.54,-160.54 36.62,22.05 94.71,-26.88 174.2,-146.87 139.07,-50.48 211.21,1.74 216.56,156.54 33.33,163.44 116.89,238.16 250.8,224.23 86.33,-102.38 160.47,-185.42 222.36,-249.18 -125.59,160.54 -140.74,232.42 -45.39,215.53 85.49,-6.51 177.75,-46.61 276.84,-120.24 30.04,83.75 73.18,146.48 129.33,188.32 122.56,-0.32 161.63,136.55 117.27,410.62 -77.56,114.44 -98.13,254.28 -61.89,419.46 -151.38,-22.31 -210.63,40.55 -177.81,188.65 70.98,158.09 84.59,260.98 40.81,308.56 -28.95,247.57 -8.51,376.65 61.25,387.28 50.55,134.81 148.48,155.96 293.86,63.57 192.64,14.44 295.93,-50.61 309.66,-195.16 57.38,-98.71 111.6,-152.93 162.73,-162.66 153.38,-101.93 219.72,-168.34 199.09,-199.09 20.5,-87.49 94.39,-140.23 221.66,-158.34 76.33,-80.78 159.18,-109.09 248.48,-85.1 36.88,24.95 94,-15.34 171.3,-120.89 70.73,18.7 142.23,-2.97 214.43,-65.18 170.01,-25.66 237.71,-62.73 203.02,-111.15 74.98,23.08 163.11,-7.93 264.27,-93.03 68.28,3.03 89.55,-37.85 63.76,-122.56 62.8,62.22 158.41,57.64 286.84,-13.6 66.86,-91.87 61.18,-169.05 -16.96,-231.45 73.24,6.19 112.18,-86.46 116.95,-278 45.97,-148.35 104.64,-268.2 175.82,-359.63 -11.86,-126.17 20.63,-186.65 97.55,-181.49 89.68,-65.18 89.68,-172.59 0,-322.17 141.13,50.93 237.52,-42.1 289.35,-279.1 12.25,-71.5 132.17,-119.92 359.75,-145.26 105.54,-161.82 46.48,-254.79 -176.98,-279.04 -51.77,70.15 -141.39,100.77 -268.85,91.87 -198.51,2.51 -337.7,-53.45 -417.52,-167.89 -26.88,-33.07 -119.72,-36.81 -278.45,-11.35 -48.55,5.93 -110.25,35.2 -184.97,87.88 -59.7,-21.15 -230.62,0.26 -512.75,64.09 -73.5,44.61 -164.86,55.38 -274.07,32.36 -70.15,-33.65 -149.96,32.17 -239.32,197.35 -24.37,85.1 -152.93,82.78 -385.74,-6.77 -82.01,-43.65 -248.73,7.87 -500.3,154.35 -82.85,86.78 -126.75,30.82 -131.59,-167.89 -82.72,-59.38 -195.41,-22.31 -338.09,111.15 8.51,-125.08 -53.51,-154.15 -186.07,-87.36 -76.72,70.79 -147.38,108.96 -212.11,114.57 -280.52,-14.25 -401.92,25.85 -364.4,120.3 -146.48,111.09 -262.92,146.61 -349.37,106.64 -31.01,-15.47 -119.47,23.08 -265.5,115.73 -86.91,-3.35 -135.33,22.37 -145.19,77.11 -51.84,-22.31 -141.06,19.28 -267.75,124.82 -344.22,66.02 -464.46,184 -360.72,353.95 100.06,217.92 45.58,319.27 -163.44,304.05 -122.11,45 -218.88,11.73 -290.45,-99.8 -512.68,-62.15 -774.31,-34.17 -784.82,83.81 -141.32,-28.56 -241.9,13.86 -301.99,127.2 -107.86,-34.62 -215.27,7.74 -322.17,127.01 -74.21,-6.12 -161.24,0.52 -260.98,19.99z"/>
  <path class="fil3 str5" d="M15168.48 1464.61c0.45,-75.82 -42.49,-89.49 -128.88,-41 -72.6,-8.25 -123.98,16.5 -154.15,74.21 -47.84,74.66 -28.95,118.89 56.61,132.68 26.88,-47.77 61.7,-82.52 104.38,-104.38 78.98,24.5 119.66,4 122.05,-61.51z"/>
  <path class="fil2 str2" d="M17997.58 6257.15c12.25,-4.51 24.63,-8.9 37.01,-13.22 314.3,-109.54 560.84,-124.69 739.62,-45.39 124.95,-6.32 174.91,87.42 149.77,281.29 55.64,31.08 129.78,39.78 222.43,26.11 -53.13,186.65 -26.24,286.06 80.59,298.25 19.6,-3.55 39.26,-7.67 58.86,-12.31 257.69,-61.25 298.51,-166.21 122.56,-314.82 -102.06,42.81 -142.87,-14.12 -122.56,-170.72 51.19,-120.95 -37.26,-186.78 -265.43,-197.41 -32.17,-116.5 -8.77,-171.75 70.34,-165.63 74.34,-28.37 123.53,2.64 147.45,93.03 20.31,54.54 90.65,91.94 211.02,112.25 20.7,115.41 86.71,181.42 197.93,197.99 97.35,123.98 138.03,234.29 122.05,330.74 98.45,201.41 210.44,244.16 335.77,128.17 66.99,-6.96 113.08,-107.15 138.42,-300.57 144.35,-74.01 210.89,-41.52 199.67,97.55 -10.19,247.25 32.95,384.12 129.33,410.69 170.21,-78.27 288.19,-78.27 353.95,0 204.38,-119.92 311.01,-93.48 319.85,79.37 43.91,272.01 -39.26,425.58 -249.51,460.72 -127.85,-47.13 -285.93,-70.6 -474.19,-70.4 -80.65,42.87 -172.91,23.98 -276.78,-56.67 -39.2,39.33 -79.3,39.33 -120.24,0 -157.89,-87.49 -306.11,-58.8 -444.73,86.2 -257.11,-58.54 -410.62,-117.53 -460.59,-176.98 -43.65,-97.8 -149.51,-97.8 -317.72,0 -104.77,-43 -130.49,-104.96 -77.11,-186 50.61,-274.33 -82.52,-369.55 -399.34,-285.87 -111.79,-82.59 -415.07,-17.54 -909.96,195.09 -347.5,-30.75 -585.02,113.73 -712.55,433.32 9.86,188.77 -136.87,335.45 -440.22,440.22 -171.17,272.27 -264.21,552.85 -279.1,841.68 -31.4,473.68 125.85,868.44 471.87,1184.35 194.25,293.28 478.64,387.09 853.09,281.36 581.28,-232.36 889.91,-256.53 925.69,-72.6 72.66,145.06 199.73,252.47 381.16,322.17 -96.64,285.68 -70.92,494.37 77.17,626.22 264.66,171.3 364.46,369.49 299.47,594.43 72.92,215.59 32.11,362.33 -122.56,440.22 -76.4,211.21 -76.4,351.89 0,421.97 121.47,165.89 166.85,282.07 136.29,348.47 100.13,198.64 111.79,358.34 35.01,479.09 0.71,153.12 102.06,354.27 304.05,603.52 74.79,239 345.51,266.27 812.22,81.69 279.74,-221.01 518.74,-509.91 716.99,-866.7 173.43,-61.38 202.18,-268.59 86.2,-621.64 401.47,-135.39 581.54,-301.79 540.08,-499.21 9.22,-75.5 11.15,-396.12 5.8,-961.99 219.98,-86.13 519.26,-385.35 897.77,-897.71 83.88,-74.01 175.17,-255.76 273.88,-545.24 -40.17,-277.49 -195.22,-287.35 -465.1,-29.46 -149.96,21.92 -248.28,-69.57 -294.96,-274.52 -147.13,-200.38 -274.59,-327.84 -382.32,-382.32 36.88,-91.61 -31.59,-207.73 -205.34,-348.28 -2.71,-124.04 -59.44,-308.56 -170.21,-553.56 -102.51,-117.4 -147.9,-220.24 -136.1,-308.63 80.14,31.78 136.1,87.81 167.89,167.95 131.39,71.69 200.25,162.47 206.44,272.2 174.01,129.07 228.49,272.01 163.37,428.87 50.87,113.73 131.01,157.63 240.48,131.59 -3.35,164.34 39.71,253.57 129.33,267.69 34.23,358.14 266.46,405.01 696.56,140.74 348.99,-40.49 581.93,-166.47 698.81,-377.94 279.49,-164.73 320.36,-314.04 122.5,-447.95 -3.42,-246.93 -118.37,-310.5 -344.93,-190.58 -104.64,49.39 -252.86,49.39 -444.66,0 -98.45,-123.4 -131.72,-232.29 -99.87,-326.74 -142.74,-244.48 -97.35,-289.87 136.17,-136.1 54.87,203.86 145.64,294.64 272.2,272.27 76.92,-12.38 208.57,7.29 394.83,58.99 121.34,184.58 271.11,227.72 449.31,129.33 -20.18,-1658.35 -669.22,-3426.43 -2074.2,-5177.3 -318.04,276.26 -628.73,444.79 -805,378.71 -16.63,-107.54 95.29,-179.43 335.84,-215.59 -6.06,-195.8 -150.48,-321.39 -433.38,-376.65 -378.26,-192.32 -664.06,-286.9 -857.61,-283.61 -294.83,85.55 -546.66,258.73 -755.55,519.58 -178.91,120.5 -454.98,345.89 -828.21,676.12 -80.98,208.83 -96.84,378.19 -47.64,508.23 80.98,131.52 232.23,177.69 453.69,138.42 45.58,194.45 -21.73,235.26 -201.99,122.5 -166.4,82.07 -196.64,230.29 -90.71,444.73 -247.31,38.81 -418.23,146.93 -512.81,324.42 -401.6,121.34 -608.1,231.84 -619.51,331.45 -76.4,204.51 6,317.2 247.31,338.03 -3.67,198.45 -164.08,273.36 -481.16,224.62 -242.48,-65.18 -355.11,33.91 -338.03,297.22 -0.45,277.29 56.28,415.72 170.14,415.2 176.98,-10.57 291.54,53.32 343.64,191.8 138.94,-163.11 282.65,-279.23 431,-348.28 171.43,-169.11 221.14,-315.2 149,-438.22z"/>
  <path class="fil2 str4" d="M38441.42 27455.12c1401.49,-10149 -4087.85,-13929.33 -13576.99,-13937.32 6690.72,2233.89 10715.65,5808.87 8339.4,13333.99 -2212.1,6389.51 -7639.75,10543.44 -7946.77,18450.37 -126.17,3247.98 1604.07,7717.44 3209.49,10418.3 960.38,1615.35 -349.95,-1100.86 -573.03,-1995.6 -1966.4,-7888.68 2804.34,-11639.73 6604.39,-17686.18 1596.39,-2540.27 3410.51,-5602.3 3943.5,-8583.56z"/>
  <path class="fil2 str4" d="M30880.91 52472.87c643.88,2491.52 1917.85,4858.3 3821.78,7100.18 -2648.32,-4066.64 -2447.75,-8814.11 601.91,-14241.95 1952.28,-3998.37 4268.31,-7869.4 6158.57,-11765.06 2741.03,-5649.11 3220.77,-10687.8 -2613.12,-14332.79 4659.98,6267.53 1835.71,9392.23 -1592.33,15105.55 -2472.51,4120.99 -7282.96,11930.56 -6720.31,16670.55 68.73,580.83 171.37,914.41 343.51,1463.52z"/>
  <path class="fil0 str0" d="M54779.17 33730.13c-2772.88,-2689 -6012.28,-3844.15 -9717.88,-3465.31 561.62,-4342.26 209.99,-7405.72 -1054.76,-9190.43 6682.92,-152.61 12094.32,1805.93 16234.14,5875.86 -1744.23,2220.55 -3564.66,4480.49 -5461.5,6779.89z"/>
  <path class="fil0 str0" d="M51953.16 46649.82c-3214.19,-37.26 -6274.88,-49.77 -9182.18,-37.85 841.49,-2631.24 1730.11,-5544.08 2665.99,-8738.48 10320.5,0 15480.78,0 15480.78,0 0,8060.56 0,15003.75 0,20829.52 -8440.36,5009.68 -16580.55,5498.95 -24420.55,1468.03 -1119.24,-4244.46 -753.1,-8161.52 1098.41,-11750.94 3390.46,5425 8176.29,6730.89 14357.55,3917.32 100.51,-1807.99 100.51,-3703.79 0,-5687.6z"/>
  <path class="fil0 str0" d="M93529.93 47032.98c701.46,-1949.83 1437.99,-3803.21 2948.7,-5274.33 -497.02,6582.47 789.72,6849.71 3856.4,12142.22l409.14 705.78c2626.66,4645.15 1414.13,2949.02 900.61,-859.74 3185.7,2552.13 7091.8,6489.63 9778.35,9546.9 -2729.68,-6657.58 -9695.44,-9869.84 -10636.86,-17743.43 -679.54,-5683.34 3417.09,-11628.32 8152.05,-14554.06 4800.33,-2735.04 10561.75,-2286.95 14119.26,2205.59 617.38,854.38 974.24,1581.37 1419.74,2526.08 2561.73,-2016.17 5000.58,-3911.52 7316.81,-5686.05 -3362.48,-6216.4 -10428.88,-9806.98 -17399.99,-9142.85 -8905.21,848.19 -15056.49,4749.53 -20457.06,11744.75 1355.01,-883.91 2996.08,-2073.62 4605.82,-2338.79 -1003.12,3047.66 -2727.94,6128.14 -3835.51,9414.73 -807.32,2395.85 -1420.26,4728.38 -1184.61,7272.32 2.39,13.6 4.77,27.34 7.16,40.88z"/>
  <path class="fil0 str0" d="M159324.35 34122.95c1187.83,-380.64 2149.11,-1505.29 2883.64,-3374.15 1069.21,-2803.7 -289.74,-5310.95 -4076.7,-7521.83 -5573.48,-2968.1 -11296.09,-3178.6 -17167.63,-631.5 -4917.29,1860.66 -7443.63,5956.58 -7579.15,12287.54 310.05,4674.1 2348.33,7899.12 6114.99,9675.07 2305.46,1211.11 5013.67,1775.69 8124.58,1693.75 3911.2,90.26 6399.37,903.71 7464.52,2440.33 591.34,1992.51 -188.26,3437.65 -2338.85,4335.3 -2713.18,891.52 -5335.26,728.86 -7866.24,-488.05 -477.09,-132.49 -1271.45,-854.96 -2382.89,-2167.55 -3172.8,-1709.61 -5756.58,-819.63 -7751.42,2669.92 -597.66,1923.65 -138.36,3636.61 1377.77,5139.07 3890.12,3433.53 8373.51,4979.05 13449.98,4636.45 5523.07,78.2 10341.32,-2242.4 14454.84,-6961.76 2020.49,-3753.37 2211.97,-7389.79 574.58,-10909.32 -1387.63,-2444.52 -3741.64,-4339.29 -7061.82,-5684.44 -2799.64,-736.72 -5943.3,-1234.38 -9430.85,-1492.92 -2911.17,-270.27 -4499.7,-1217.62 -4765.71,-2842.19 -352.4,-1954.28 556.72,-3418.38 2727.36,-4392.55 2028.36,-759.87 4133.69,-645.04 6315.94,344.54 1016.73,608.29 1566.87,1278.16 1650.55,2009.79 722.93,1169.46 2483.79,1580.92 5282.52,1234.51z"/>
  <path class="fil2 str2" d="M113135.38 55400.62c5088.85,-235.45 8462.09,-2429.37 10119.22,-6581.96 5331.91,3332.43 7997.89,4998.72 7997.89,4998.72 -1924.94,3561.31 -5048.04,6246.83 -9369.34,8056.82 -3289.5,1102.41 -6491.37,1569.57 -9605.44,1401.69 -711.84,-1786.97 -1499.04,-3273.12 -2361.74,-4458.57 -675.22,-890.23 -1671.57,-2141.57 -2988.99,-3753.69 -314.24,-363.62 -643.95,-722.8 -989.07,-1077.2 -1150.44,-1243.8 -1869.05,-2161.75 -2156.08,-2754.12 -956.44,-1231.8 -1538.05,-2545.23 -1744.62,-3940.08 -456.08,-2443.43 -338.54,-4893.5 352.53,-7350.21 216.05,-667.22 523.32,-1454.49 921.76,-2361.74 -314.56,2871.59 -422.29,5230.36 -323.01,7076.46 257.82,2400.62 1068.37,4330.01 2431.24,5788.05 910.22,1118.98 1942.87,2068.2 3097.88,2847.73 1326,988.74 2865.27,1691.43 4617.75,2108.11z"/>
  <path class="fil0 str0" d="M87090.2 34125.98c1187.83,-380.64 2149.11,-1505.29 2883.64,-3374.08 1069.21,-2803.76 -289.74,-5311.02 -4076.7,-7521.83 -5573.48,-2968.17 -11296.09,-3178.67 -17167.7,-631.5 -4917.22,1860.66 -7443.56,5956.51 -7579.08,12287.48 310.05,4674.1 2348.33,7899.19 6114.99,9675.13 2305.46,1211.04 5013.67,1775.63 8124.58,1693.68 3911.2,90.33 6399.37,903.77 7464.52,2440.4 591.34,1992.51 -188.26,3437.65 -2338.85,4335.3 -2713.18,891.46 -5335.26,728.79 -7866.24,-488.12 -477.09,-132.49 -1271.45,-854.96 -2382.89,-2167.55 -3172.8,-1709.61 -5756.58,-819.57 -7751.42,2669.98 -597.66,1923.59 -138.36,3636.61 1377.77,5139.01 3890.12,3433.59 8373.51,4979.05 13449.98,4636.45 5523.07,78.2 10341.32,-2242.34 14454.84,-6961.76 2020.49,-3753.37 2211.97,-7389.79 574.58,-10909.32 -1387.7,-2444.52 -3741.64,-4339.29 -7061.82,-5684.38 -2799.64,-736.72 -5943.3,-1234.38 -9430.85,-1492.98 -2911.17,-270.2 -4499.7,-1217.62 -4765.71,-2842.19 -352.4,-1954.21 556.72,-3418.38 2727.36,-4392.48 2028.36,-759.87 4133.69,-645.04 6315.88,344.54 1016.79,608.23 1566.93,1278.09 1650.61,2009.79 722.93,1169.39 2483.79,1580.86 5282.52,1234.45z"/>
 </g>
</svg>
